<svg height="100" viewBox="0 0 100 100" width="100" xmlns="http://www.w3.org/2000/svg"><g fill="#fff"><circle cx="63.3" cy="47.6" r="10.7"/><path d="m63.6 60.3h-.8a16.43 16.43 0 0 0 -16.1 13.9c0 .7.2 2.4 2.7 2.4h27.2c2.5 0 2.7-1.5 2.7-2.4a15.65 15.65 0 0 0 -15.7-13.9z"/><path d="m48.6 58.3c.4-.4.1-.7.1-.7a17.94 17.94 0 0 1 -3.1-10 17.18 17.18 0 0 1 3.2-10.2.1.1 0 0 1 .1-.1 1.76 1.76 0 0 0 .4-1.1v-10.8a2.15 2.15 0 0 0 -2-2h-24.8a2.18 2.18 0 0 0 -2 2.1v46.2h19.5a24.12 24.12 0 0 1 8.6-13.4zm-17 7.7a2.18 2.18 0 0 1 -2.1 2.1h-2.1a2.18 2.18 0 0 1 -2.1-2.1v-2.1a2.18 2.18 0 0 1 2.1-2.1h2.1a2.18 2.18 0 0 1 2.1 2.1zm0-10.5a2.18 2.18 0 0 1 -2.1 2.1h-2.1a2.18 2.18 0 0 1 -2.1-2.1v-2.1a2.18 2.18 0 0 1 2.1-2.1h2.1a2.18 2.18 0 0 1 2.1 2.1zm0-10.5a2.18 2.18 0 0 1 -2.1 2.1h-2.1a2.18 2.18 0 0 1 -2.1-2.1v-2.1a2.18 2.18 0 0 1 2.1-2.1h2.1a2.18 2.18 0 0 1 2.1 2.1zm0-10.5a2.18 2.18 0 0 1 -2.1 2.1h-2.1a2.18 2.18 0 0 1 -2.1-2.1v-2.1a2.18 2.18 0 0 1 2.1-2.1h2.1a2.18 2.18 0 0 1 2.1 2.1zm11.9 21a2.18 2.18 0 0 1 -2.1 2.1h-2.1a2.18 2.18 0 0 1 -2.1-2.1v-2.1a2.18 2.18 0 0 1 2.1-2.1h2.1a2.18 2.18 0 0 1 2.1 2.1zm0-10.5a2.18 2.18 0 0 1 -2.1 2.1h-2.1a2.18 2.18 0 0 1 -2.1-2.1v-2.1a2.18 2.18 0 0 1 2.1-2.1h2.1a2.18 2.18 0 0 1 2.1 2.1zm0-10.5a2.18 2.18 0 0 1 -2.1 2.1h-2.1a2.18 2.18 0 0 1 -2.1-2.1v-2.1a2.18 2.18 0 0 1 2.1-2.1h2.1a2.18 2.18 0 0 1 2.1 2.1z"/></g></svg>